<?xml version="1.0" standalone="no"?>
<!DOCTYPE svg PUBLIC "-//W3C//DTD SVG 1.1//EN" "http://www.w3.org/Graphics/SVG/1.1/DTD/svg11.dtd" >
<svg>
<metadata>
Created by FontForge 20110222 at Thu Jan  9 03:51:18 2014
 By deploy user
Generated in 2012 by FontLab Studio. Copyright info pending.
</metadata>
<defs>
<font id="Socialico" horiz-adv-x="796" >
  <font-face 
    font-family="Socialico"
    font-weight="400"
    font-stretch="normal"
    units-per-em="1000"
    panose-1="0 0 0 0 0 0 0 0 0 0"
    ascent="750"
    descent="-250"
    x-height="699"
    cap-height="677"
    bbox="47 -4 884 707"
    underline-thickness="50"
    underline-position="-50"
    unicode-range="U+0020-007A"
  />
<missing-glyph 
 />
    <glyph glyph-name=".notdef" 
 />
    <glyph glyph-name=".null" horiz-adv-x="0" 
 />
    <glyph glyph-name="nonmarkingreturn" horiz-adv-x="333" 
 />
    <glyph glyph-name="space" unicode=" " 
d="M399 707q145 0 248 -102.5t103 -248.5t-102.5 -249t-248.5 -103t-249 103t-103 249q0 145 103 248t249 103z" />
    <glyph glyph-name="exclam" unicode="!" 
d="M168 343q-20 -17 -20 -42q0 -24 20 -42v84zM189 355v-107q10 -2 16 -2h5v110q-2 1 -5 1q-6 0 -16 -2zM231 350v-104h21v139q-13 -18 -17 -37zM273 405v-159h21v169q-10 -3 -21 -10zM315 419v-173h21v173q-2 0 -6.5 0.5t-6.5 0.5q-5 0 -8 -1zM347 416v-170h31v174
q-8 -11 -9 -13q-9 5 -22 9zM389 430v-184h199v1q30 1 45.5 18t15.5 42t-17 42.5t-42 17.5q-11 0 -24 -5q-5 40 -35 67t-72 27t-70 -26zM399 0q-146 0 -249 103t-103 248t103.5 248.5t248.5 103.5t248 -103t103 -249q0 -145 -103 -248t-248 -103z" />
    <glyph glyph-name="dollar" unicode="$" horiz-adv-x="795" 
d="M600 343v7q0 38 -21 61q-19 21 -53 21t-55 -22q-22 -21 -22 -62q0 -39 21 -60t57 -21q30 0 47 13q19 14 25 38l-28 3q-8 -18 -17 -24q-11 -8 -27 -8q-21 0 -34 14q-14 14 -15 40h122zM526 410q22 0 34 -15q10 -11 11 -30h-91q0 21 14 33t32 12zM417 270v109q0 28 -13 40
q-12 13 -37 13q-31 0 -51 -27q-5 13 -16 20t-30 7q-18 0 -29 -7q-11 -6 -21 -18v22h-24v-159h27v83q0 20 5 33q5 11 14 17q10 6 22 6q16 0 22 -9q7 -8 7 -27v-103h28v92q0 26 11 36q13 11 29 11q11 0 16 -4q7 -4 10 -12q3 -6 3 -23v-100h27zM398 701q146 0 248.5 -102.5
t102.5 -248.5t-102.5 -249t-248.5 -103t-248.5 103t-102.5 249t102.5 248.5t248.5 102.5z" />
    <glyph glyph-name="ampersand" unicode="&#x26;" horiz-adv-x="795" 
d="M498 280q26 22 38.5 62t8.5 79q-5 41 -38.5 73t-78.5 37q-71 8 -124 -31.5t-54 -105.5q0 -64 51 -85q9 9 10 18t-3 16t-9 17.5t-6 19.5q-6 60 49 98.5t113 3.5q27 -16 34.5 -59.5t-8 -83t-47.5 -46.5q-25 -4 -37 8q-19 11 -1.5 59t8.5 69q-12 27 -38 14t-30 -40
q-2 -10 2 -27.5t4 -23.5q0 -21 -13.5 -66.5t-15.5 -58.5q-7 -36 -1 -60h-1h25q18 31 37 111q3 2 5 0t4 -5.5t3 -4.5q25 -16 58.5 -11t54.5 23zM398 701q146 0 248.5 -102.5t102.5 -248.5t-102.5 -249t-248.5 -103t-248.5 103t-102.5 249t102.5 248.5t248.5 102.5z" />
    <glyph glyph-name="parenleft" unicode="(" horiz-adv-x="795" 
d="M364 335h-34l68 -68l68 68h-34v103h-68v-103zM398 523q-71 0 -121 -50t-50 -121q0 -70 50.5 -120.5t120.5 -50.5t120.5 50.5t50.5 120.5q0 71 -50 121t-121 50zM398 1q-146 0 -248.5 102.5t-102.5 248.5t103 249t248 103t248 -103t103 -249t-102.5 -248.5t-248.5 -102.5z
M398 216q-57 0 -97 40t-40 96q0 57 40 97t97 40q56 0 96.5 -40t40.5 -97q0 -56 -40.5 -96t-96.5 -40z" />
    <glyph glyph-name="parenright" unicode=")" 
d="M271 485l-102 -112h75v-140q0 -7 5 -12t12 -5h171l-53 54h-81v103h75zM536 486h-171l53 -54h81v-103h-76l103 -112l102 112h-75v140q0 7 -5 12t-12 5zM398 0q-146 0 -248.5 103t-102.5 248t102.5 248t248.5 103t249 -103t103 -248t-103 -248t-249 -103z" />
    <glyph glyph-name="comma" unicode="," 
d="M226 397q-6 -14 1 -25q5 -12 21 -15l6 -1l81 10q1 8 9 17l-50 36l-15 6q-16 4 -31 -5q-15 -5 -22 -23zM310 491q-2 -13 6 -30l3 -6l50 -54l8 3l-11 66q-1 6 -7 18q-10 19 -25 24q-9 3 -13 -1q-11 -6 -11 -20zM417 371q-10 10 -26 10t-26 -10q-12 -12 -12 -26
q0 -17 12 -27q9 -11 26 -11q15 0 26 11q11 10 11 27q0 15 -11 26zM406 492l-1 -5l1 -23l5 -63q8 -4 17 -10l50 62q5 9 8 17l2 12q0 8 -4 20q-8 15 -26 18q-16 6 -32 -2q-17 -10 -20 -26zM508 424l-7 -2l-57 -48l-2 -2l1 -2l1 -4l69 8q7 1 19 5q21 10 26 25l1 5l-2 7
q-5 11 -19 13q-17 2 -30 -5zM565 286l2 11q0 15 -9 24q-5 10 -20 16l-6 1l-22 -1l-64 -5l-2 -7l-4 -9l59 -48q6 -8 16 -9q16 -6 31 2q15 7 19 25zM469 220q1 14 -7 29l-3 6l-15 18l-23 24l-8 -4l-9 -4l8 -48l7 -19q9 -20 25 -25q9 0 13 3q8 2 12 20zM383 206v22q-3 21 -5 61
q-6 1 -18 7l-47 -56q-4 -4 -9 -16l-2 -13q0 -11 5 -19q6 -14 24 -19q14 -4 31 4q15 7 21 23v6zM296 281l4 3l17 14q3 3 10 9.5t11 10.5l-2 4l-3 11l-45 -8q-1 0 -17 -7q-18 -8 -23 -23l-1 -5l1 -6q4 -7 18 -9q14 -1 30 6zM398 -3q-146 0 -248.5 102.5t-102.5 248.5t103 249
t248 103q146 0 249 -103t103 -249q0 -145 -103 -248t-249 -103z" />
    <glyph glyph-name="hyphen" unicode="-" 
d="M545 379q11 14 6.5 23.5t-22.5 9.5h-76l-37 77q-8 17 -18 17t-18 -17l-36 -77h-77q-18 0 -22.5 -9.5t7.5 -23.5h1l58 -71l-30 -86q-5 -17 2 -23.5t23 1.5l92 46l92 -46q16 -8 23.5 -1.5t1.5 23.5l-29 86l58 71h1zM398 702q146 0 249 -103t103 -248q0 -146 -103 -249
t-249 -103t-248.5 103t-102.5 249q0 145 102.5 248t248.5 103z" />
    <glyph glyph-name="period" unicode="." 
d="M352 320q-10 -1 -17 -9.5t-6 -18.5t8.5 -17t17.5 -5q11 2 17.5 10t5.5 18v1v84l65 12v-68q-4 2 -12 2q-11 -2 -17.5 -10t-5.5 -18t8.5 -16.5t17.5 -5.5t17 9.5t6 18.5v1v123v0l-93 -16v-97q-4 2 -12 2zM398 511q-66 0 -113.5 -47t-47.5 -114q0 -66 47.5 -113t113.5 -47
q67 0 114 47t47 113q0 67 -47 114t-114 47zM398 -1q-146 0 -248.5 102.5t-102.5 248.5t103 249t248 103q146 0 249 -103t103 -249q0 -145 -103 -248t-249 -103zM398 222q-53 0 -90.5 37.5t-37.5 90.5t37.5 91t90.5 38t91 -38t38 -91t-38 -90.5t-91 -37.5z" />
    <glyph glyph-name="slash" unicode="/" 
d="M585 379v100q0 1 -0.5 2t-0.5 2l-198 -210l-31 52q5 13 5 27q0 31 -21.5 52.5t-52.5 21.5t-52.5 -21.5t-21.5 -52.5t21.5 -53t52.5 -22q12 0 25 5l72 -66zM398 701q146 0 249 -103t103 -248q0 -146 -103 -249t-249 -103t-248.5 103t-102.5 249t102.5 248.5t248.5 102.5z
" />
    <glyph glyph-name="zero" unicode="0" 
d="M253 352l-31 -107q32 12 57 12q29 0 65 -21q21 69 32 110q-2 2 -6 4t-6 4q-26 12 -48 12h-6q-21 -1 -48 -10q-3 -2 -9 -4zM294 497l-30 -107q32 13 59 13q31 0 62 -21l32 109q-25 14 -37 17t-27 3q-25 0 -59 -14zM515 450q-37 0 -69 21l-32 -109q32 -21 68 -21
q29 0 60 14v1h2l30 106q-30 -12 -59 -12zM502 212l30 103q-30 -9 -58 -9q-43 0 -70 21l-31 -108q33 -22 64 -22t65 15zM398 2q-145 0 -248 103t-103 249t102.5 248.5t248.5 102.5t249 -103t103 -248q0 -146 -103 -249t-249 -103z" />
    <glyph glyph-name="one" unicode="1" 
d="M233 403v-99h116v-115h99v115h116v99h-116v116h-99v-116h-116zM399 2q-146 0 -249 103t-103 249t103 248.5t249 102.5q145 0 248 -102.5t103 -248.5t-103 -249t-248 -103z" />
    <glyph glyph-name="two" unicode="2" 
d="M281 418q-25 0 -42.5 -17.5t-17.5 -42.5t17.5 -42.5t42.5 -17.5q22 0 39 14l121 -61v-3q0 -25 17.5 -42.5t42.5 -17.5t42.5 17.5t17.5 42.5t-17.5 42.5t-42.5 17.5q-20 0 -39 -14l-121 60v4v3l121 61q17 -14 39 -14q25 0 42.5 17.5t17.5 42.5t-17.5 42t-42.5 17
t-42.5 -17t-17.5 -42v-4l-121 -61q-18 15 -39 15zM402 701q145 -2 246.5 -104t101.5 -247q0 -146 -103 -248.5t-248 -102.5q-146 0 -249 103t-103 248t102 247t246 104h7z" />
    <glyph glyph-name="three" unicode="3" horiz-adv-x="795" 
d="M205 444q-15 -47 24.5 -111.5t93 -108t81.5 -43.5q20 0 55.5 27t69.5 65.5t53.5 86.5t8.5 84q-24 78 -100 78q-30 0 -51.5 -16t-31.5 -32l-10 -17l-10 17q-9 16 -30.5 32t-51.5 16q-34 0 -61.5 -19t-39.5 -59zM398 0q-146 0 -248.5 103t-102.5 248q0 146 103 249t248 103
t248 -103t103 -249q0 -145 -102.5 -248t-248.5 -103z" />
    <glyph glyph-name="four" unicode="4" horiz-adv-x="795" 
d="M321 504q-43 -22 -68 -62.5t-25 -88.5q0 -23 6 -44q3 3 75.5 68.5t75.5 68.5q-2 1 -32 28.5t-32 29.5zM402 700q144 -2 245.5 -104t101.5 -247t-102.5 -248t-248.5 -103t-248.5 103t-102.5 248t101.5 247t245.5 104h8zM398 523q-29 0 -59 -11q2 -2 64 -58.5t65 -59.5v114
q-33 15 -70 15zM486 498v-201h73q9 27 9 56q0 44 -22 83t-60 62zM414 184q44 4 81 29.5t56 65.5h-223v-81q28 -13 54 -14h32zM311 208v146q-42 -35 -71 -64q22 -53 71 -82z" />
    <glyph glyph-name="five" unicode="5" 
d="M202 327v-127l110 33v-45h161l-47 142h77q40 0 68 28t28 68t-28 68t-68 28q-36 0 -63 -23.5t-32 -58.5h-3q-5 35 -32 58.5t-63 23.5q-40 0 -67.5 -28t-27.5 -68q0 -39 27.5 -67t66.5 -29h3v-32zM337 426q0 -11 -8 -19t-19 -8t-19 8t-8 19t8 19t19 8t19 -8t8 -19zM505 399
q-11 0 -19 8t-8 19t8 19t19 8t19 -8t8 -19t-8 -19t-19 -8zM398 2q-146 0 -248.5 103t-102.5 248q0 146 103 249t248 103q146 0 249 -103t103 -249t-103 -248.5t-249 -102.5z" />
    <glyph glyph-name="six" unicode="6" 
d="M301 495q-60 0 -102 -42.5t-42 -102.5q0 -59 42 -101.5t102 -42.5q68 0 111 53l-18 43q-30 -56 -93 -56q-43 0 -74 30.5t-31 73.5q0 44 31 74.5t74 30.5q32 0 58.5 -17t37.5 -45l46 -105l5 -12q30 -68 96 -68q42 0 69.5 23.5t27.5 60.5q0 34 -17 51t-57 31
q-4 1 -14.5 4.5t-14.5 5t-11.5 4.5t-10.5 5.5t-6.5 6.5t-5 9t-1.5 11q0 16 11 26.5t28 10.5q24 0 41 -23l31 16q-24 42 -70 42q-36 0 -57 -20t-21 -53q0 -32 20 -49.5t66 -32.5q19 -6 27.5 -10t15.5 -12.5t7 -21.5q0 -21 -17 -34.5t-43 -12.5q-25 1 -37.5 13t-23.5 37
q-45 105 -47 110q-18 42 -53 65.5t-80 23.5zM399 -1q-146 0 -249 103t-103 248q0 146 103.5 249t248.5 103t248 -103t103 -249t-103 -248.5t-248 -102.5z" />
    <glyph glyph-name="seven" unicode="7" 
d="M401 446q-22 0 -37 -15t-15 -36q0 -22 15 -37t37 -15q21 0 36 15t15 37q0 21 -15 36t-36 15zM401 519q-52 0 -88.5 -36.5t-36.5 -87.5q0 -45 28.5 -79t71.5 -43l25 -99l25 99q43 9 71 43.5t28 78.5q0 51 -36.5 87.5t-87.5 36.5zM399 -4q-146 0 -249 103t-103 248
t103.5 248.5t248.5 103.5t248 -103t103 -249q0 -145 -103 -248t-248 -103zM401 302q-39 0 -66 27t-27 66q0 38 27 65.5t66 27.5q38 0 65.5 -27.5t27.5 -65.5q0 -39 -27.5 -66t-65.5 -27z" />
    <glyph glyph-name="eight" unicode="8" 
d="M398 184q120 5 138 127q5 37 -3 94q1 -7 -2 -15t-7 -13l-3 -5q-3 30 -32 66.5t-56 58.5l-27 22q-1 -13 -19 -31t-45 -43t-41 -45q-13 -18 -18.5 -40.5t-6.5 -37t-3 -15.5q-3 -1 -6.5 0.5t-5.5 3.5l-2 2q33 -123 139 -129zM399 703q145 0 248 -102.5t103 -248.5
t-102.5 -249t-248.5 -103t-249 103t-103 249q0 145 103 248t249 103z" />
    <glyph glyph-name="nine" unicode="9" 
d="M188 333q-2 -29 17.5 -47t52.5 -15q10 2 15 5q4 2 10 7t8 6q-13 -56 18 -56h23q2 12 5 33.5t4 26.5q1 6 5 27t5 33q2 29 -13 45.5t-43 18.5q-51 4 -84 -29q-22 -25 -23 -55zM250 313q-12 11 -8.5 32t15.5 30q5 5 15 6q14 0 19 -4q11 -9 8 -31t-15 -31q-16 -12 -34 -2z
M365 316q-4 -24 1 -32q8 -10 44 -8q7 38 14 92q5 23 0 30q-6 11 -45 11v-1q-2 -12 -7 -43.5t-7 -48.5zM408 468q-31 -10 -26 -31q3 -11 14.5 -14.5t21.5 1.5q24 9 17 31q-3 10 -18 13h-9zM437 302q-1 -18 11 -23t36 -4q2 11 5.5 33t5.5 32q3 -5 9 -15.5t9 -15.5
q14 -24 21 -29q14 -10 34.5 -4t22.5 22q-13 3 -20.5 9.5t-16.5 23.5t-10 19q5 6 32.5 32t32.5 31q-7 0 -19 0.5t-21 0.5t-16 -3q-5 -2 -15 -12q-5 -4 -27 -29q-6 -8 -14 -14q1 11 6 38t6 39q1 19 -10.5 24t-37.5 4v-2q-2 -14 -8 -51.5t-11 -68.5t-5 -37zM399 -1
q-146 0 -249 103t-103 249q0 145 103 248t249 103q145 0 248 -103t103 -248q0 -146 -102.5 -249t-248.5 -103z" />
    <glyph glyph-name="colon" unicode=":" horiz-adv-x="798" 
d="M581 214q-39 -34 -103 -44t-111 21q-3 2 -7 9t-7.5 10.5t-8.5 -0.5q-36 -151 -70 -210h-48h2q-10 42 2 114q4 23 29.5 109.5t25.5 126.5q0 12 -7 45t-4 52q3 23 19.5 44t36.5 31.5t41 5t32 -31.5q12 -27 4.5 -64.5t-21 -66t-16.5 -61t19 -50.5q9 -9 30 -13.5t40 -1.5
q45 9 74 58t34 107t-12.5 114t-55.5 78q-57 35 -114 28.5t-102 -36.5t-71 -81t-20 -104q2 -17 11.5 -37t17 -32.5t6 -30t-18.5 -34.5q-52 21 -74.5 59.5t-22.5 101.5q1 125 102 200t235 59q85 -10 149 -70t73 -138q7 -74 -16.5 -150t-72.5 -117z" />
    <glyph glyph-name="question" unicode="?" 
d="M398 495q-70 0 -119 -34.5t-49 -83.5q0 -38 32.5 -69t84.5 -43q-13 -47 -30 -57q9 0 24 2t48.5 16t52.5 38q55 11 89.5 42t34.5 71q0 49 -49 83.5t-119 34.5zM499 370q0 38 -33 66t-83 34h4q56 0 96 -27.5t40 -66.5q0 -27 -20.5 -49.5t-53.5 -33.5q50 29 50 77zM398 0
q-146 0 -248.5 103t-102.5 248q0 146 103 249t248 103q146 0 249 -103.5t103 -248.5t-103 -248t-249 -103z" />
    <glyph glyph-name="at" unicode="@" 
d="M278 421q-19 -41 -11 -86t32 -79q28 -43 51 -42q10 0 25.5 7t28.5 7t28.5 -6.5t26.5 -6.5q22 0 50 40q4 6 8 13t6.5 13t4.5 10.5t3 7.5l1 3q-3 0 -12 5.5t-21 22t-12 38.5q0 19 9.5 34.5t16 21t10.5 7.5q-22 32 -60 32q-15 2 -37 -6.5t-26 -8.5q-5 0 -23.5 7.5t-30.5 6.5
q-45 0 -68 -41zM415 518q-21 -25 -18 -51q29 -3 49 23q20 23 17 53q-28 -2 -48 -25zM399 0q-146 0 -249 103t-103 248t103.5 248.5t248.5 103.5t248 -103t103 -249q0 -145 -103 -248t-248 -103z" />
    <glyph glyph-name="A" unicode="A" horiz-adv-x="767" 
d="M58 191q153 -88 333 -88q124 0 236 45q1 0 18 7q6 2 11 -0.5t5 -7t-5 -8.5q-16 -14 -29 -20q-106 -65 -243 -65q-194 0 -333 128q-3 2 -3 5.5t2.5 4.5t7.5 -1zM445 450q-38 0 -54 -4q-54 -16 -54 -68q0 -24 12 -38t33 -14h9q27 9 40 34q14 20 14 76v14zM436 571
q-14 19 -39 19h-6q-44 -5 -54 -45q-5 -12 -12 -12l-71 7q-12 5 -9 16q10 55 51 81t95 29h15q69 0 109 -36q6 -6 11 -13t8.5 -13t5.5 -15.5t3.5 -14.5t2 -17t0.5 -16v-18v-17v-114q0 -31 29 -66q5 -11 -2 -18q-13 -12 -56 -47q-5 -6 -16 -2q-21 17 -41 47q-37 -36 -69 -45
q-25 -7 -50 -7q-48 0 -78 29t-30 82q0 88 77 117q27 15 81 22q40 4 54 4v10q0 41 -9 53zM598 185q15 10 29 15q30 8 58 5.5t32 -9.5q4 -4 4 -11v-3q-2 -23 -13.5 -51.5t-31.5 -45.5q-7 -7 -10 -1q-1 2 1 4q29 71 19 85q-7 9 -59 5q-6 -1 -15.5 -2t-11.5 -1q-3 0 -5 1.5t-1 4
t4 4.5z" />
    <glyph glyph-name="B" unicode="B" horiz-adv-x="628" 
d="M47 590q0 24 17.5 41.5t42.5 17.5q24 0 41.5 -17.5t17.5 -41.5v-297q0 -50 35 -84.5t84 -34.5h59q50 0 84.5 30t34.5 73t-18.5 73.5t-40.5 30.5h-119q-25 0 -42.5 17.5t-17.5 42.5q0 24 17.5 41.5t42.5 17.5h119q74 0 126 -65t52 -158q0 -92 -69.5 -157.5t-168.5 -65.5
h-59q-99 0 -168.5 70t-69.5 169v297z" />
    <glyph glyph-name="C" unicode="C" horiz-adv-x="728" 
d="M47 373q0 5 4.5 9.5t9.5 4.5h153l-66 -115h-87q-14 0 -14 14v87zM319 490l37 -22q12 -6 6 -20l-175 -302q-5 -12 -20 -6l-37 22q-12 6 -6 20l175 302q5 12 20 6zM349 637q6 3 20.5 -18t41 -67t35.5 -61q40 -61 119 -219q7 -11 -0.5 -21t-17.5 -13q-2 -1 -6 -2.5t-5.5 -2
t-5 -1t-6.5 0.5t-7 3q-12 6 -110 227q-2 5 -10 23t-13.5 30t-13.5 31t-13 32.5t-8.5 26.5t-3.5 21t4 10zM668 387q14 0 14 -14v-87q0 -14 -14 -14h-76q-1 1 -2 5.5t-3 6.5q-10 20 -13 27q-6 10 -20.5 37.5t-20.5 38.5h135zM648 63q-2 6 -24.5 16.5t-31.5 23.5q-16 21 2 39
q30 16 43.5 -3.5t12.5 -47.5zM565 157l-21 36q-11 12 5 21l22 11q13 7 19 -7l18 -34q6 -14 -5 -24l-16 -9q-13 -6 -22 6zM301 272l66 115h38l54 -115h-158zM157 108l-49 -32q-11 -9 -11 5l7 58q0 5 4.5 7t8.5 0l38 -22q11 -8 2 -16z" />
    <glyph glyph-name="D" unicode="D" horiz-adv-x="678" 
d="M427 308q25 -74 36 -167q93 54 115 162q-49 11 -88 11q-32 0 -63 -6zM196 152q68 -45 143 -45q44 0 77 12q-7 87 -36 177q-115 -39 -184 -144zM411 355q49 9 79 9q41 0 93 -13q0 72 -43 137q-69 -58 -146 -93q3 -7 8.5 -20t8.5 -20zM508 526q-71 68 -169 68q-31 0 -63 -9
q57 -71 97 -145q71 31 135 86zM328 422q-41 76 -101 145q-51 -27 -85.5 -74.5t-44.5 -105.5h33q103 0 198 35zM339 643q121 0 207 -85.5t86 -206.5t-86 -207t-207 -86t-206.5 85.5t-85.5 207.5q0 121 85.5 206.5t206.5 85.5zM364 342q-7 12 -15 35q-111 -40 -219 -40
q-5 0 -16.5 1t-17.5 1q2 -87 64 -153q74 112 204 156z" />
    <glyph glyph-name="E" unicode="E" horiz-adv-x="803" 
d="M316 271q0 34 -29 47q-11 7 -43 7h-96v-117h94q30 0 45 8q29 13 29 55zM649 385q-22 16 -49 16q-33 0 -50 -18q-16 -19 -22 -49h142q-3 31 -21 51zM47 572h213q80 0 115 -47q20 -28 20 -66q0 -42 -22 -65q-8 -13 -32 -25q35 -15 50 -40q18 -29 18 -65t-20 -70
q-14 -21 -32 -34q-15 -13 -49 -24q-32 -5 -63 -5h-198v441zM487 426q42 43 113 43q40 0 74 -14q34 -18 54 -47q20 -33 25 -66q4 -30 4 -62h-231q0 -46 33 -66q17 -13 45 -13q26 0 46 15q11 7 17 21h84q-3 -29 -30 -57q-39 -45 -119 -45q-63 0 -112 37q-47 40 -47 128
q0 80 44 126zM510 554h176v-45h-176v45zM289 410q18 10 18 38q0 30 -24 41q-25 7 -52 7h-83v-97h94q27 0 47 11z" />
    <glyph glyph-name="F" unicode="F" horiz-adv-x="421" 
d="M47 446h94v58q0 64 41 108.5t99 44.5h94v-115h-94q-9 0 -16 -10.5t-7 -25.5v-60h117v-117h-117v-284h-117v284h-94v117z" />
    <glyph glyph-name="G" unicode="G" horiz-adv-x="417" 
d="M200 427q26 0 44.5 18t18.5 45q0 26 -18.5 44.5t-44.5 18.5t-44.5 -18.5t-18.5 -44.5q0 -27 18.5 -45t44.5 -18zM209 127q30 0 51 14t21 34t-21 34.5t-51 14.5t-51 -14.5t-21 -34.5t21 -34t51 -14zM101 328q0 32 13 58q-51 41 -51 104q0 56 39 95.5t94 39.5q35 0 71 -23
l97 54v-90l-47 -25q18 -22 18 -51q0 -56 -39.5 -95.5t-95.5 -39.5h-4q-5 0 -5 -27q0 -15 5 -27h13q67 0 114.5 -36.5t47.5 -89.5t-47.5 -89.5t-114.5 -36.5t-114.5 36.5t-47.5 89.5q0 64 65 101q-11 25 -11 52z" />
    <glyph glyph-name="H" unicode="H" horiz-adv-x="697" 
d="M288 234q-6 3 -18 17t-25.5 24t-28.5 9q-29 -2 -34.5 -29.5t23.5 -56.5q31 -29 68 -42t99 -9q70 3 115.5 52t21.5 103q-7 18 -20 32t-26 22.5t-34.5 16.5t-35.5 11.5t-41 9.5t-39 9q-45 11 -44 39q1 26 36 41q17 8 37 8q27 -1 52 -18t42 -32.5t28 -14.5q25 3 32 29.5
t-23 55.5q-62 54 -164 45q-49 -5 -83.5 -35.5t-38.5 -83.5q-5 -51 42 -82t109 -40q48 -8 75 -27t1 -49q-17 -20 -45.5 -22.5t-47.5 3.5t-33 14zM212 649q52 0 90 -27q15 4 45 4q115 0 196 -81t81 -194q0 -26 -1 -38q28 -42 28 -94q0 -69 -48 -117t-117 -48q-49 0 -88 25
q-26 -6 -51 -6q-115 0 -196 81.5t-81 196.5q0 28 4 43q-27 38 -27 90q0 69 48 117t117 48z" />
    <glyph glyph-name="I" unicode="I" horiz-adv-x="602" 
d="M115 677q28 0 48.5 -20.5t20.5 -49.5t-20 -49t-49 -20q-28 0 -48 20t-20 49t20 49.5t48 20.5zM225 497h112v-18q33 16 72.5 14.5t71.5 -18.5q33 -19 54 -55t21 -74v-236h-110v236q0 8 -6 19t-13 13q-23 10 -43 5.5t-34 -15.5l-13 -10v-248h-112v387zM171 110h-112v387
h112v-387z" />
    <glyph glyph-name="J" unicode="J" horiz-adv-x="921" 
d="M211 472l-49 97l119 15l40 -81q3 0 7 1q122 19 214 11.5t155.5 -33.5t103 -53.5t57.5 -49.5l17 -22l-380 -108l-88 178q59 10 119 -2l36 -68l129 34l-9 6t-26 14.5t-41 19t-53 17t-64 12t-72 1t-78 -13.5l104 -211l-380 -110q-2 5 -5.5 14t-10 36.5t-8.5 54t4 62t22 66
t51 61.5t86 52zM301 287l-56 115q-30 -19 -48.5 -41.5t-23 -41t-5 -34t3.5 -24.5l3 -9z" />
    <glyph glyph-name="K" unicode="K" horiz-adv-x="799" 
d="M47 662h128v-182q94 54 225 54q145 0 249 -70.5t104 -168.5q0 -100 -103.5 -170.5t-249.5 -70.5q-143 0 -245.5 68t-107.5 166v374zM400 399q61 0 104.5 -30.5t43.5 -73.5q0 -44 -43.5 -75t-104.5 -31q-62 0 -105 31t-43 75t43 74t105 30zM400 135q93 0 159 46.5
t66 113.5q0 66 -66 113t-159 47t-159 -47t-66 -113q0 -67 66 -113.5t159 -46.5z" />
    <glyph glyph-name="L" unicode="L" horiz-adv-x="768" 
d="M708 533q-24 -35 -60 -63v-14q0 -62 -23 -122t-64.5 -110t-108 -81t-146.5 -31q-100 0 -185 55q9 -1 29 -1q86 0 149 51q-39 1 -70 24.5t-42 59.5q12 -3 22 -3q12 0 32 4q-42 9 -69.5 42t-27.5 76v1q28 -14 56 -14q-54 33 -54 100q0 32 16 61q97 -120 248 -126
q-3 12 -3 26q0 50 35.5 86t84.5 36q52 0 88 -38q33 5 77 28q-16 -42 -53 -66q34 4 69 19z" />
    <glyph glyph-name="M" unicode="M" horiz-adv-x="615" 
d="M569 49h-261v136h-157v103h-104v119q0 29 19.5 48.5t47.5 19.5q22 0 39.5 -14.5t23.5 -37.5q29 36 75 36q33 0 59.5 -20.5t34.5 -51.5q36 36 92 36q54 0 92.5 -38t38.5 -92v-244zM110 614q23 0 39.5 -16.5t16.5 -39.5q0 -24 -16.5 -41t-39.5 -17t-39.5 17t-16.5 41
q0 23 16.5 39.5t39.5 16.5zM252 632q30 0 52 -22t22 -52q0 -31 -22 -52.5t-52 -21.5q-31 0 -52.5 21.5t-21.5 52.5q0 30 21.5 52t52.5 22zM438 653q40 0 67.5 -28t27.5 -67q0 -41 -27.5 -69t-67.5 -28t-68 28.5t-28 68.5q0 39 28 67t68 28z" />
    <glyph glyph-name="N" unicode="N" horiz-adv-x="794" 
d="M200 504q64 0 108.5 -44.5t44.5 -108.5t-44.5 -108.5t-108.5 -44.5q-63 0 -108 44.5t-45 108.5t45 108.5t108 44.5zM595 504q63 0 108 -44.5t45 -108.5t-45 -108.5t-108 -44.5t-107.5 45t-44.5 108t44.5 108t107.5 45z" />
    <glyph glyph-name="O" unicode="O" horiz-adv-x="408" 
d="M47 466q37 13 56 28q20 16 34 44q11 20 18 63h70v-116h117v-90h-117v-129q0 -45 4 -54q5 -12 20 -22q13 -9 37 -9q41 0 76 24v-80q-34 -14 -58 -21q-27 -6 -57 -6q-22 0 -54 9q-26 9 -45 26q-21 16 -25 34q-8 15 -8 52v176h-68v71z" />
    <glyph glyph-name="P" unicode="P" horiz-adv-x="699" 
d="M168 660h272q69 0 116.5 -49.5t28.5 -139.5q-19 -84 -80.5 -133t-144.5 -49h-113l-40 -183h-160zM344 395h4q29 1 54.5 23t33.5 53q0 5 2 7q2 12 -2 31q-13 38 -54 38h-79l-34 -152h75zM648 403q-18 -84 -80.5 -133t-144.5 -49h-115l-38 -182h-160l7 29h134l39 183h114
q83 0 145 49t80 133q13 61 -8 106q45 -52 27 -136z" />
    <glyph glyph-name="Q" unicode="Q" horiz-adv-x="666" 
d="M619 382q-3 -73 -40 -135t-97 -101q18 -24 37 -35.5t29 -11.5h10v-48q-3 -2 -8 -4t-20.5 -6t-29.5 -3.5t-32.5 8.5t-32.5 25q-15 17 -30 41q-38 -13 -81 -13q-118 0 -199 82.5t-77 200.5q5 116 91.5 199.5t203.5 83.5q118 0 199 -83.5t77 -199.5zM345 594
q-60 0 -105 -60.5t-50 -146.5q-2 -86 39 -147t102 -61q21 0 36 7q-2 3 -6.5 11.5t-6.5 11.5q-9 13 -22 18t-22 3l-8 -1v49q3 1 8.5 3t21.5 3.5t31.5 -1.5t34.5 -15.5t34 -34.5q51 63 54 154q2 86 -38.5 146.5t-102.5 60.5z" />
    <glyph glyph-name="R" unicode="R" horiz-adv-x="704" 
d="M128 210q34 0 57.5 -23.5t23.5 -57.5t-23.5 -57.5t-57.5 -23.5t-57.5 23.5t-23.5 57.5t23.5 57.5t57.5 23.5zM47 452q167 0 285.5 -119t118.5 -285h-119q0 119 -83 202q-85 85 -202 85v117zM47 659q166 0 306.5 -82t222.5 -222.5t82 -306.5h-117q0 134 -66.5 247.5
t-180 180t-247.5 66.5v117z" />
    <glyph glyph-name="S" unicode="S" horiz-adv-x="814" 
d="M768 242q0 -68 -47 -115t-115 -47q-66 0 -114 47.5t-48 114.5v102l51 -23l74 23v-102q0 -16 10.5 -27t26.5 -11t27 11t11 27v99h124v-99zM444 427v45q0 15 -10.5 26.5t-25.5 11.5t-26 -11.5t-11 -26.5v-230q0 -67 -47.5 -112t-114.5 -45t-114.5 47.5t-47.5 114.5v99h124
v-99q0 -16 11 -27.5t27 -11.5t26.5 11.5t10.5 27.5v225q0 66 47.5 114t114.5 48q66 0 113.5 -48t47.5 -114v-45l-74 -23z" />
    <glyph glyph-name="T" unicode="T" horiz-adv-x="534" 
d="M47 558q0 28 20 48t48 20q30 0 49.5 -19.5t19.5 -48.5v-68h236q28 0 48 -20.5t20 -50.5q0 -28 -20 -48t-48 -20h-236v-38q0 -40 26 -70.5t60 -30.5h151q29 0 48 -19t19 -49q0 -28 -20 -48t-48 -20h-153q-91 0 -155.5 69.5t-64.5 167.5v245z" />
    <glyph glyph-name="U" unicode="U" horiz-adv-x="682" 
d="M236 212h211q15 0 25.5 11t10.5 25q0 15 -10.5 25.5t-25.5 10.5h-211q-15 0 -25.5 -10.5t-10.5 -25.5q0 -14 10.5 -25t25.5 -11zM47 464q0 77 54.5 132.5t131.5 55.5h131q40 -5 83 -34t61 -69q12 -24 18 -63q1 -5 2.5 -15.5t2.5 -15t3 -10.5t6 -9q9 -9 43 -10t38 -3l9 -7
l6 -11v-7v-151q0 -77 -55 -132.5t-132 -55.5h-216q-77 0 -131.5 55.5t-54.5 132.5v217zM236 427h103q15 0 25.5 10.5t10.5 25.5q0 14 -10.5 25t-25.5 11h-103q-15 0 -25.5 -11t-10.5 -25q0 -15 10.5 -25.5t25.5 -10.5z" />
    <glyph glyph-name="V" unicode="V" horiz-adv-x="788" 
d="M255 652q27 6 46.5 -7t30.5 -43t17 -57.5t12.5 -69.5t10.5 -61q21 -78 32.5 -108t25.5 -30q30 0 97 124q31 58 4 93.5t-85 1.5q14 88 93 135q70 42 133 23q67 -20 69 -99q1 -19 -3 -41q-13 -76 -56 -154.5t-95.5 -136.5t-96 -97t-73.5 -58q-31 -22 -61 -13t-51 29t-33 45
q-12 24 -60 181.5t-59 169.5q-12 10 -29 5t-33 -16l-16 -12l-28 38q5 6 13.5 15.5t33.5 34.5t49 45t55.5 39t56.5 24z" />
    <glyph glyph-name="W" unicode="W" horiz-adv-x="704" 
d="M74 472l146 -398q-78 37 -125.5 111t-47.5 163q0 60 27 124zM352 652q120 0 207 -79h-6q-21 0 -35.5 -16.5t-14.5 -37.5q0 -25 30 -72q26 -47 26 -83q0 -35 -24 -99l-30 -101l-110 326l34 4q12 2 11 13.5t-13 11.5q-48 -4 -81 -4l-81 4q-12 0 -13 -11.5t11 -13.5
q17 -2 33 -4l47 -129l-67 -200l-110 329l34 4q13 2 12 13.5t-13 11.5q-49 -4 -81 -4h-20q41 63 108 100t146 37zM620 494q38 -71 38 -146q0 -83 -42 -153t-111 -110l93 268q24 59 24 110q0 22 -2 31zM352 44q-49 0 -85 12l90 265l94 -256l3 -3q-44 -18 -102 -18z" />
    <glyph glyph-name="X" unicode="X" horiz-adv-x="616" 
d="M369 95q3 -4 9 -7q1 0 4 -1t5 -1q4 0 11 5q1 2 1 13v97q0 11 -3 15q-3 5 -11 5q-2 0 -4.5 -1t-4.5 -1q-1 -1 -3.5 -2.5t-3.5 -2.5v-119zM502 216q-4 -4 -4 -18v-18h33v18q0 10 -4 18q-6 3 -12 3q-7 0 -13 -3zM313 397q7 0 13 6q5 5 5 12v114q0 8 -5 11q-7 5 -13 5
q-10 0 -13 -5q-5 -3 -5 -11v-114q0 -6 4 -12q5 -6 14 -6zM47 315h131v-36h-45v-220h-41v220h-45v36zM135 649l32 -113h2l31 113h48l-56 -165v-117h-48v111l-56 171h47zM252 527q0 24 16 40q20 14 47 14t43 -16q16 -13 16 -38v-108q0 -28 -16 -41q-17 -17 -45 -17t-45 17
q-16 15 -16 41v108zM403 250q16 0 27 -11q9 -16 9 -36v-104q0 -18 -9 -31q-8 -11 -25 -11q-10 0 -20 4q-10 6 -16 12v-14h-38v256h38v-81q6 6 16 12q5 4 18 4zM408 576h44v-161q0 -9 1 -10q4 -4 9 -4t13 5q7 4 13 11v159h43v-209h-43v23q-6 -7 -26 -20q-16 -7 -23 -7
q-15 0 -23 11q-8 10 -8 27v175zM570 198v-49h-72v-36q0 -16 4 -20q3 -5 13 -5q6 0 12 3q4 4 4 22v9h39v-9q0 -28 -14 -45q-14 -14 -43 -14q-24 0 -40 16q-14 17 -14 43v85q0 23 16 39t41 16q26 0 40 -14q14 -17 14 -41zM302 59h-38v22q-10 -13 -21 -18q-11 -6 -22 -6
q-14 0 -20 7q-7 11 -7 26v158h38v-144q0 -3 1 -6.5t1 -4.5q2 -2 9 -2q5 0 11 4t10 9v144h38v-189z" />
    <glyph glyph-name="Y" unicode="Y" horiz-adv-x="930" 
d="M47 602h373v-4q1 0 1 -2l-1 -7v-40h-112q22 -32 52 -72t62 -80.5t39 -50.5l149 135h-90l-12 52h327l-1 -3h1l-23 -35h-2l-9 -14h-59q-18 -4 -20 -4q-19 -4 -116 -83t-105 -104q-2 -8 -0.5 -72t3.5 -77q6 -1 57.5 -1t59.5 -1l-2 -38q-16 2 -192 2q-17 0 -86 -2t-85 -2
l5 36q3 0 30 0.5t49 3.5t29 11q5 5 5 65t-3 75q-4 16 -93.5 125.5t-120.5 133.5h-110v53zM826 191l-50 4l-2 234q9 -3 54.5 -7t55.5 -4zM821 99l-29 2l-25 4v54l32 -4l29 -2z" />
    <glyph glyph-name="Z" unicode="Z" horiz-adv-x="560" 
d="M197 256q4 6 7 40q5 67 25 105.5t60 59.5q23 -14 43 -16v-5q0 -15 3 -20l4 -9l9 -4q63 -21 135 9l25 -55q-37 -20 -67.5 -27.5t-46 -7t-42.5 5.5h-13q-15 0 -22 -20q0 -6 2.5 -11t5.5 -7l3 -2l8 -4q7 -3 18 -9.5t26 -16.5t32 -25t34 -33t35 -44t33 -55l-63 -38
q-42 81 -157 132q-2 0 -4.5 1.5t-4.5 1.5q-9 0 -14 -7l-11 -13q-23 -31 -39 -48.5t-54.5 -41.5t-88.5 -37l-31 79q107 29 150 122zM281 650q34 0 57.5 -23.5t23.5 -57.5t-23.5 -57.5t-57.5 -23.5t-57.5 23.5t-23.5 57.5t23.5 57.5t57.5 23.5z" />
    <glyph glyph-name="a" unicode="a" 
d="M218 266q-5 3 -6 -1q0 -2 2 -4q77 -71 185 -71q77 0 135 36q6 3 16 11q6 3 2 8q-3 3 -8 1q-2 0 -5 -2t-5 -2q-63 -25 -131 -25q-100 0 -185 49zM433 410v-8q0 -30 -8 -42q-7 -14 -22 -19h-5q-25 0 -25 29t30 38q9 2 30 2zM428 477q5 -7 5 -29v-6q-8 0 -30 -2
q-30 -4 -45 -12q-43 -17 -43 -65q0 -30 16.5 -46t43.5 -16q12 0 28 4q19 6 38 25q12 -18 23 -26q6 -2 9 1q12 9 31 26q5 5 1 10q-16 20 -16 37v63v8.5v8.5v8t-0.5 8.5l-1.5 7.5t-2 8t-3 7t-4.5 7t-5.5 6q-23 20 -61 20h-8q-71 -4 -81 -61q-2 -7 5 -9l39 -4q5 0 7 7
q5 21 30 25h3q14 0 22 -11zM518 263q-8 -6 1 -6q2 1 7 1.5t8 0.5q29 2 33 -3q5 -8 -11 -47q-2 -3 1 -3q2 -1 4 1q22 19 25 54v2q0 4 -2 6q-2 4 -17.5 5t-32.5 -3q-6 -2 -16 -8zM399 -1q-145 0 -248.5 103.5t-103.5 248.5t103 248t249 103q145 0 248 -103t103 -248
q0 -146 -103 -249t-248 -103z" />
    <glyph glyph-name="b" unicode="b" 
d="M258 484v-165q0 -55 38.5 -94t93.5 -39h33q55 0 93.5 36.5t38.5 87.5q0 52 -29 88t-70 36h-66q-14 0 -23.5 -10t-9.5 -23t9.5 -23t23.5 -10h66q12 0 22.5 -17t10.5 -41t-19 -40.5t-47 -16.5h-33q-27 0 -46.5 19t-19.5 47v165q0 14 -10 23.5t-23 9.5t-23 -9.5t-10 -23.5z
M402 703q144 -2 246 -104.5t102 -246.5q0 -146 -103 -249t-249 -103q-145 0 -248 103t-103 249q0 144 101.5 247t246.5 104h7z" />
    <glyph glyph-name="c" unicode="c" 
d="M222 363v-48q0 -8 8 -8h48l37 64h-85q-8 0 -8 -8zM373 428q-8 4 -11 -3l-97 -168q-4 -8 3 -11l21 -12q8 -4 11 3l97 168q4 8 -3 11zM390 510q-9 -4 32 -97q54 -122 61 -126q6 -3 17 1q6 2 10 7.5t0 11.5q-44 88 -66 122q-5 8 -12.5 21t-13.5 23t-12 19.5t-10 14t-6 3.5z
M567 371h-75q4 -7 12 -22t11 -20q1 -4 7 -15q1 -1 2 -4l1 -3h42q8 0 8 8v48q0 8 -8 8zM556 191v3.5t0.5 9t-0.5 11t-2.5 11.5t-5 9t-9 3.5t-13.5 -3.5q-10 -10 -1 -22q5 -7 17.5 -12.5t13.5 -9.5zM510 243q5 -7 12 -3l9 5q6 5 3 13l-10 19q-4 8 -11 4l-12 -6q-8 -5 -3 -12z
M363 307h88l-30 64h-21zM283 216q5 5 -1 9l-21 12q-2 2 -4.5 0.5t-2.5 -4.5l-4 -32q0 -7 6 -3zM399 -1q-145 0 -248.5 103.5t-103.5 248.5t103 248t249 103q145 0 248 -103t103 -248q0 -146 -103 -249t-248 -103z" />
    <glyph glyph-name="d" unicode="d" 
d="M447 327q18 3 35 3q24 0 49 -6q-13 -60 -64 -90q-7 53 -20 93zM319 240q39 59 102 80q16 -48 20 -98q-20 -7 -43 -7q-42 0 -79 25zM438 353q-2 3 -5 11t-4 11q43 20 81 52q24 -37 24 -76q-32 7 -52 7q-19 0 -44 -5zM492 448q-34 -30 -75 -48q-23 42 -54 81q20 5 35 5
q54 0 94 -38zM392 390q-53 -19 -110 -19h-18q11 68 72 100q34 -41 56 -81zM398 513q-67 0 -114.5 -47.5t-47.5 -114.5q0 -68 47.5 -115.5t114.5 -47.5q68 0 115.5 48t47.5 115t-48 114.5t-115 47.5zM398 -1q-146 0 -248.5 103t-102.5 249q0 145 102.5 248t248.5 103
t249 -103t103 -248q0 -146 -103 -249t-249 -103zM412 346q-72 -25 -113 -87q-34 36 -36 85q4 0 10 -0.5t9 -0.5q59 0 122 22q3 -9 8 -19z" />
    <glyph glyph-name="e" unicode="e" 
d="M351 307q0 -24 -16 -31q-8 -4 -25 -4h-52v65h53q17 0 24 -4q16 -7 16 -26zM536 370q11 -11 12 -28h-79q3 16 12 27q10 10 28 10q15 0 27 -9zM202 474v-245h110q18 0 35 3q18 5 27 13q11 8 18 19q11 19 11 39q0 19 -10 36q-8 14 -28 22q13 7 18 14q12 13 12 36
q0 21 -11 37q-20 26 -64 26h-118zM402 703q145 -1 246.5 -104t101.5 -247q0 -146 -103 -249t-248 -103t-248.5 103t-103.5 249q0 144 102 246.5t246 104.5h7zM446 393q-24 -25 -24 -70q0 -49 26 -71q27 -21 62 -21q44 0 66 25q16 17 17 32h-47q-3 -8 -9 -12q-11 -8 -26 -8
t-25 7q-18 11 -18 37h128q0 18 -2 34q-3 19 -14 37q-11 17 -30 26q-19 8 -41 8q-39 0 -63 -24zM459 464v-25h98v25h-98zM336 384q-10 -6 -26 -6h-52v54h46q13 0 29 -4q13 -6 13 -23q0 -15 -10 -21z" />
    <glyph glyph-name="f" unicode="f" horiz-adv-x="795" 
d="M307 404v-65h52v-158h65v158h65v65h-65v33q0 8 4 14t9 6h52v64h-52q-32 0 -55 -25t-23 -60v-32h-52zM398 0q-146 0 -248.5 103t-102.5 248q0 146 103 249t248 103t248 -103t103 -249q0 -145 -102.5 -248t-248.5 -103z" />
    <glyph glyph-name="g" unicode="g" horiz-adv-x="795" 
d="M393 394q-14 0 -24.5 10t-10.5 25q0 14 10.5 24.5t24.5 10.5t24.5 -10.5t10.5 -24.5q0 -15 -10.5 -25t-24.5 -10zM398 227q-17 0 -28.5 8t-11.5 19t11.5 19t28.5 8t28.5 -8t11.5 -19t-11.5 -19t-28.5 -8zM338 339q0 -15 6 -29q-36 -21 -36 -56q0 -29 26 -49.5t64 -20.5
t64 20.5t26 49.5t-26 49.5t-64 20.5h-7q-3 6 -3 15q0 15 3 15h2q31 0 53 22t22 53q0 16 -10 28l26 14v50l-54 -30q-20 13 -39 13q-31 0 -52.5 -22t-21.5 -53q0 -35 28 -58q-7 -14 -7 -32zM398 1q-146 0 -248.5 103t-102.5 249q0 145 102.5 248t248.5 103t248.5 -103
t102.5 -248q0 -146 -102.5 -249t-248.5 -103z" />
    <glyph glyph-name="h" unicode="h" 
d="M365 286q8 -4 18.5 -7.5t26 -2t25.5 12.5q15 17 -0.5 27.5t-41.5 14.5q-35 5 -61 22.5t-23 45.5q2 30 21.5 47t46.5 19q56 5 91 -25q17 -16 13 -30.5t-18 -16.5q-6 -1 -27 17t-41 19q-29 0 -38 -20q-11 -20 20 -28q1 -1 2 -1q5 -1 25.5 -5.5t28 -7.5t21.5 -8.5t21.5 -14
t12.5 -20.5q13 -30 -12 -57t-64 -29q-60 -4 -93 28q-16 17 -13 32t19 16q8 0 15.5 -5.5t14.5 -13t10 -9.5zM323 517q-38 0 -65 -27t-27 -65q0 -29 15 -50q-2 -8 -2 -24q0 -64 45 -109t109 -45q14 0 28 3q22 -14 49 -14q38 0 65 27t27 65q0 28 -16 52q1 7 1 21q0 63 -45 108
t-109 45q-17 0 -25 -2q-21 15 -50 15zM399 0q-146 0 -249 103t-103 248t103 248t249 103q145 0 248 -103t103 -248t-103 -248t-248 -103z" />
    <glyph glyph-name="i" unicode="i" 
d="M299 551q-16 0 -27 -11.5t-11 -27.5t11 -27t27 -11t27 11t11 27t-11 27.5t-27 11.5zM360 451v-215h62v138q3 3 7.5 6t18.5 8.5t24 -3.5q4 -1 7.5 -7t3.5 -11v-131h61v131q0 21 -11.5 41.5t-30.5 30.5q-41 21 -80 2v10h-62zM330 236v215h-62v-215h62zM398 0
q-145 0 -248 103t-103 249t102.5 248.5t248.5 102.5t249 -103t103 -248q0 -146 -103 -249t-249 -103z" />
    <glyph glyph-name="j" unicode="j" horiz-adv-x="795" 
d="M284 420q-39 -16 -61 -41.5t-26 -51t-2.5 -48.5t7.5 -37l5 -14l211 61l-58 117q53 12 95.5 5t68.5 -21l27 -15l-72 -19l-20 38q-33 7 -66 1l49 -99l211 60q-2 3 -5 7t-15.5 16t-27.5 21t-40.5 21.5t-55.5 17t-71.5 7t-88.5 -7.5q-2 -1 -4 -1l-22 45l-66 -8zM334 317
l-70 -19q-2 5 -4 13.5t7 30.5t36 39zM402 702q144 -1 245.5 -104t101.5 -247q0 -146 -103 -249t-248 -103t-248 103t-103 249q0 144 101.5 247t245.5 104h8z" />
    <glyph glyph-name="k" unicode="k" 
d="M215 527v-208q2 -54 59.5 -92t136.5 -38q81 0 138.5 39.5t57.5 94.5t-57.5 94t-138.5 39q-71 0 -125 -30v101h-71zM411 381q-34 0 -58 -17t-24 -41q0 -25 24 -42t58 -17t58 17t24 42q0 24 -24 41t-58 17zM411 234q-52 0 -88.5 26t-36.5 63t36.5 63t88.5 26t88.5 -26
t36.5 -63t-36.5 -63t-88.5 -26zM402 702q145 -2 246.5 -104t101.5 -247t-103 -248t-249 -103t-248.5 103t-102.5 248t101.5 247t246.5 104h7z" />
    <glyph glyph-name="l" unicode="l" 
d="M399 702q145 0 248 -103t103 -248t-103 -248t-248 -103q-146 0 -249 103t-103 248t103 248t249 103zM589 452q-22 -8 -41 -11q20 12 32 39q-27 -13 -47 -17q-20 23 -51 23q-29 0 -50 -21t-21 -51q0 -6 2 -16q-89 4 -147 75q-9 -17 -9 -36q0 -40 31 -59q-18 0 -32 8v-1
q0 -25 16 -45t40 -25q-10 -2 -19 -2q-4 0 -12 2q6 -21 24 -35t42 -15q-38 -30 -88 -30h-17q50 -32 109 -32q92 0 147 62.5t55 140.5v9q21 15 36 37z" />
    <glyph glyph-name="m" unicode="m" 
d="M543 183v136q0 30 -21.5 51t-51.5 21q-31 0 -51 -20q-5 17 -19 28.5t-33 11.5q-25 0 -42 -20q-7 29 -35 29q-16 0 -26.5 -11t-10.5 -27v-66h58v-57h87v-76h145zM288 497q-13 0 -22 -9t-9 -22t9 -22.5t22 -9.5t22 9.5t9 22.5t-9 22t-22 9zM367 507q-17 0 -29 -12t-12 -29
t12 -29t29 -12t29 12t12 29q0 16 -12 28.5t-29 12.5zM470 519q-22 0 -37.5 -15.5t-15.5 -37.5t15.5 -38t37.5 -16t37.5 15.5t15.5 38.5q0 22 -15.5 37.5t-37.5 15.5zM398 702q146 0 249 -103t103 -248t-103 -248t-249 -103t-248.5 103t-102.5 248t102.5 248t248.5 103z" />
    <glyph glyph-name="n" unicode="n" 
d="M289 436q-35 0 -60 -25t-25 -60t25 -60t60 -25t60 25t25 60t-25 60t-60 25zM508 436q-35 0 -59.5 -25t-24.5 -60t24.5 -60t59.5 -25t60 25t25 60t-25 60t-60 25zM399 0q-146 0 -249 103t-103 248t103 248t249 103q145 0 248 -103t103 -248t-103 -248t-248 -103z" />
    <glyph glyph-name="o" unicode="o" 
d="M311 414v-39h38v-98q0 -21 4 -29q3 -9 14 -19q12 -10 25 -14q17 -5 30 -5q17 0 32 3q16 5 32 12v44q-20 -13 -42 -13q-14 0 -21 5q-7 4 -11 12q-2 5 -2 30v72h65v50h-65v64h-39q-3 -23 -10 -35q-8 -16 -19 -24q-9 -8 -31 -16zM402 701q144 -2 246 -104.5t102 -246.5
q0 -146 -103 -249t-249 -103q-145 0 -248 103t-103 249q0 144 101.5 247t246.5 104h7z" />
    <glyph glyph-name="p" unicode="p" 
d="M297 522l-67 -308h89l22 102h63q46 0 80.5 27t44.5 74q10 50 -16 77.5t-65 27.5h-151zM395 375h-42l19 84h44q23 0 30 -21q2 -10 1 -17q-1 -1 -1 -4q-4 -17 -18 -29t-31 -13h-2zM564 379q10 46 -15 76q11 -25 4 -59q-10 -47 -44.5 -74t-80.5 -27h-63l-22 -102h-74l-4 -16
h89l21 101h64q46 0 80.5 27t44.5 74zM398 -2q-146 0 -248.5 103t-102.5 248t102.5 248t248.5 103t249 -103t103 -248t-103 -248t-249 -103z" />
    <glyph glyph-name="q" unicode="q" 
d="M557 368q2 65 -43 111t-110 46t-113.5 -46t-50.5 -111t43 -111t110 -46q25 0 45 7q8 -12 17 -23q12 -15 29 -17.5t28 2.5l11 4v27q-19 -4 -42 26q34 21 54.5 55.5t21.5 75.5zM405 486q34 0 57 -33.5t21 -81.5q-1 -51 -30 -86q-13 20 -31 26t-30 3l-11 -4v-27q17 5 29 -11
q1 -2 3.5 -6.5t3.5 -6.5q-9 -4 -20 -4q-34 0 -56.5 34t-21.5 82q2 47 27 81t59 34zM399 702q145 0 248 -103t103 -248q0 -146 -102.5 -249t-248.5 -103t-249 103t-103 249t103 248.5t249 102.5z" />
    <glyph glyph-name="r" unicode="r" 
d="M287 274q-19 0 -32 -13t-13 -32t13 -32t32 -13t32 13t13 32t-13 32t-32 13zM402 700q145 -2 246.5 -104t101.5 -247t-103 -248t-248 -103q-146 0 -249 103t-103 248t102 247t246 104h7zM242 408v-65q65 0 112 -47q46 -46 46 -112h66q0 92 -66 158t-158 66zM242 523v-65
q113 0 193.5 -80.5t80.5 -193.5h65q0 140 -99.5 239.5t-239.5 99.5z" />
    <glyph glyph-name="s" unicode="s" 
d="M398 0q-146 0 -248.5 103t-102.5 249t102.5 248.5t248.5 102.5t249 -102.5t103 -248.5t-103 -249t-249 -103zM602 293v55h-69v-55q0 -9 -6 -15t-15 -6t-15 6t-6 15v57l-41 -13l-28 13v-57q0 -37 26.5 -63.5t63.5 -26.5q38 0 64 26.5t26 63.5zM422 396l28 -13l41 13v25
q0 37 -26 63.5t-63 26.5t-63.5 -26.5t-26.5 -63.5v-125q0 -9 -6 -15.5t-15 -6.5t-15 6.5t-6 15.5v55h-69v-55q0 -38 26.5 -64t63.5 -26t63.5 25t26.5 62v128q0 8 6 14.5t15 6.5q8 0 14 -6.5t6 -14.5v-25z" />
    <glyph glyph-name="t" unicode="t" 
d="M276 466v-136q0 -55 36 -93.5t86 -38.5h85q16 0 27 11t11 27t-10.5 27t-26.5 11h-84q-19 0 -33.5 17t-14.5 39v21h131q16 0 27 11t11 27t-11 27.5t-27 11.5h-131v38q0 16 -11 27t-27 11t-27 -11t-11 -27zM399 0q-146 0 -249 103t-103 248t103.5 248.5t248.5 103.5
t248 -103t103 -249q0 -145 -103 -248t-248 -103z" />
    <glyph glyph-name="u" unicode="u" 
d="M345 276q-8 0 -14 6t-6 14t6 14t14 6h117q8 0 14 -6t6 -14t-6 -14t-14 -6h-117zM240 416v-121q0 -43 30 -73.5t73 -30.5h120q43 0 73.5 30.5t30.5 73.5v84v4l-3 6l-5 4q-2 1 -21 1.5t-24 5.5q-4 4 -8 28q-4 22 -10 35q-10 22 -34 38.5t-46 18.5h-73q-43 0 -73 -30.5
t-30 -73.5zM398 -1q-146 0 -248.5 102.5t-102.5 248.5t102.5 248.5t248.5 102.5t249 -103t103 -248t-103 -248t-249 -103zM345 395q-8 0 -14 6t-6 14t6 14t14 6h57q8 0 14 -6t6 -14t-6 -14t-14 -6h-57z" />
    <glyph glyph-name="v" unicode="v" 
d="M321 520q-22 -4 -51 -26t-47 -42l-18 -20l16 -21q4 3 9 6.5t18 9t16 -2.5q6 -7 33 -94.5t33 -100.5q7 -14 18.5 -25t28 -16t34.5 7q45 29 104.5 99t73.5 149q11 62 -35 77q-41 14 -84 -18q-36 -26 -43 -69q32 19 47 -1t-2 -52q-38 -69 -54 -69q-12 0 -32 77
q-3 11 -6.5 34t-6.5 38.5t-9.5 32t-17 23.5t-25.5 4zM398 0q-146 0 -248.5 103t-102.5 248t102.5 248t248.5 103t249 -103t103 -248t-103 -248t-249 -103z" />
    <glyph glyph-name="w" unicode="w" 
d="M244 417q-15 -35 -15 -69q0 -50 26.5 -90.5t69.5 -61.5zM398 517q-91 0 -141 -76h11l45 2q4 0 6 -3.5t0.5 -7t-5.5 -3.5q-9 -1 -19 -2l61 -183l37 111l-26 72l-18 2q-4 0 -5.5 3.5t0.5 7t6 3.5q28 -2 45 -2l45 2q4 0 6 -3.5t0.5 -7t-5.5 -3.5q-9 -1 -19 -2l61 -181l17 56
q13 36 13 55q0 20 -14 46q-17 26 -17 40q0 12 8 21t20 9h3q-49 44 -115 44zM547 429q1 -5 1 -17q0 -30 -13 -61l-52 -149q39 22 62 61t23 85q0 42 -21 81zM398 179q31 0 57 10l-2 2l-52 142l-50 -147q21 -7 47 -7zM398 -3q-146 0 -248.5 102.5t-102.5 248.5t102.5 248.5
t248.5 102.5t249 -102.5t103 -248.5t-103 -248.5t-249 -102.5z" />
    <glyph glyph-name="x" unicode="x" 
d="M432 209v66q0 1 2 2l2 1q1 0 2.5 0.5t2.5 0.5q5 0 6 -3q2 -2 2 -8v-54q0 -6 -1 -7q-3 -3 -6 -3q-1 0 -2.5 0.5t-2.5 0.5q-2 1 -5 4zM506 276q2 2 7 2t7 -2q2 -4 2 -10v-10h-18v10q0 8 2 10zM401 377q-5 0 -8 3q-2 4 -2 7v63q0 4 3 6q2 3 7 3q4 0 7 -3q3 -2 3 -6v-63
q0 -4 -3 -7t-7 -3zM253 331v-20h25v-122h23v122h25v20h-73zM302 517h-26l31 -95v-62h27v65l31 92h-27l-17 -63h-1zM367 449v-60q0 -14 9 -23t25 -9t25 9q9 8 9 23v60q0 13 -9 21q-9 9 -24 9t-26 -8q-9 -9 -9 -22zM451 295q-7 0 -10 -2q-6 -4 -9 -7v45h-21v-142h21v8
q3 -3 9 -7q6 -2 11 -2q10 0 14 6q5 7 5 17v58q0 12 -5 20q-6 6 -15 6zM454 476v-97q0 -9 4 -15t13 -6q5 0 13 4q10 6 14 11v-13h24v116h-24v-88q-2 -4 -7 -6q-5 -3 -7 -3q-3 0 -5 2q-1 1 -1 6v89h-24zM544 266q0 13 -8 23q-8 8 -22 8t-23 -9t-9 -22v-47q0 -14 8 -24
q9 -9 22 -9q16 0 24 8q8 10 8 25v5h-22v-5q0 -10 -2 -12t-7 -2t-7 3q-2 2 -2 11v20h40v27zM395 189v105h-21v-80q-4 -4 -6 -5q-3 -2 -6 -2q-4 0 -5 1l-1 2v4v80h-21v-88q0 -9 4 -14q3 -4 11 -4q6 0 12 3q7 3 12 10v-12h21zM399 0q-146 0 -249 103t-103 248t103.5 248.5
t248.5 103.5t248 -103t103 -249q0 -145 -103 -248t-248 -103z" />
    <glyph glyph-name="y" unicode="y" 
d="M166 490v-29h61q17 -14 67 -74.5t52 -69.5q2 -10 2 -42.5t-3 -35.5q-4 -4 -16 -6t-27.5 -2h-16.5l-3 -20q9 0 47 1t48 1q98 0 107 -1l1 21q-5 1 -33 1h-32q-1 7 -2 43t0 40q5 14 58.5 57.5t64.5 46.5q1 0 11 2h33l5 8h1l13 19h-1l1 2h-182l7 -29h50l-83 -75l-34 44
q-34 44 -51 69h62v22l1 4l-1 1v2h-207zM599 262l32 126q-40 0 -61 6l1 -130zM596 211l4 30l-16 1l-18 2v-30l14 -2zM399 -1q-146 0 -249 102.5t-103 248.5t103 249t249 103q145 0 248 -103t103 -249t-103 -248.5t-248 -102.5z" />
    <glyph glyph-name="z" unicode="z" horiz-adv-x="795" 
d="M351 299q-24 -52 -83 -68l17 -44q28 7 49 20.5t30 23.5t22 27l6 7q4 4 8 4q1 0 5 -2q64 -28 87 -73l35 21q-8 16 -18 30.5t-19.5 24.5t-19 18.5t-17.5 14t-14.5 9t-10.5 5.5l-4 2q-1 0 -2 1t-2.5 4t-1.5 6q4 11 12 11h7q14 -5 35.5 -2t51.5 18l-14 31q-39 -17 -75 -5
l-5 2l-2 5q-2 3 -2 11v3q-10 1 -24 9q-41 -22 -47 -92q-1 -19 -4 -22zM398 518q-19 0 -32 -13t-13 -32t13 -32t32 -13t32 13t13 32t-13 32t-32 13zM398 0q-146 0 -248.5 103t-102.5 248t102.5 248t248.5 103t248.5 -103t102.5 -248t-102.5 -248t-248.5 -103z" />
  </font>
</defs>
</svg>
